<svg xmlns="http://www.w3.org/2000/svg" viewBox="0 0 33 29" width="33" height="29">
	<style>
		tspan { white-space:pre }
		.shp0 { fill: #666d89 } 
	</style>
	<path id="bubble" class="shp0" d="M16 5C10.04 5 5 8.21 5 12C5 12.28 5.22 12.5 5.5 12.5C5.78 12.5 6 12.28 6 12C6 8.8 10.67 6 16 6C16.28 6 16.5 5.78 16.5 5.5C16.5 5.22 16.28 5 16 5ZM16 0C7.16 0 0 5.37 0 12C0 16.13 2.78 19.77 7.01 21.93C7.01 21.95 7 21.97 7 22C7 23.79 5.66 25.72 5.07 26.74C5.07 26.74 5.07 26.74 5.07 26.74C5.03 26.85 5 26.97 5 27.09C5 27.59 5.41 28 5.91 28C6 28 6.17 27.97 6.16 27.99C9.29 27.48 12.23 24.6 12.91 23.77C13.91 23.92 14.94 24 16 24C24.84 24 32 18.63 32 12C32 5.37 24.84 0 16 0ZM16 22C15.08 22 14.14 21.93 13.2 21.79C13.11 21.78 13.01 21.77 12.91 21.77C12.32 21.77 11.75 22.04 11.37 22.5C10.94 23.02 9.72 24.19 8.28 25.04C8.67 24.15 8.98 23.14 9 22.11C9 22.05 9.01 21.98 9.01 21.93C9.01 21.17 8.59 20.49 7.92 20.14C4.21 18.25 2 15.21 2 12C2 6.49 8.28 2 16 2C23.72 2 30 6.49 30 12C30 17.51 23.72 22 16 22Z" />
</svg>