<svg xmlns="http://www.w3.org/2000/svg" viewBox="0 0 24 33" width="24" height="33">
	<style>
		tspan { white-space:pre }
		.shp0 { fill: #666d89 } 
	</style>
	<path id="bulb" class="shp0" d="M12 0C5.92 0 1 4.92 1 11C1 15.03 4.69 19.3 6.03 23.05C8.03 28.65 7.81 32 12 32C16.25 32 15.96 28.67 17.97 23.08C19.32 19.32 23 15 23 11C23 4.92 18.08 0 12 0ZM14.59 27.18L9.63 27.8C9.46 27.28 9.27 26.68 9.04 25.9C9.03 25.89 9.03 25.88 9.03 25.87L15.22 25.1C15.13 25.39 15.03 25.7 14.95 25.98C14.82 26.43 14.7 26.82 14.59 27.18ZM8.74 24.91C8.55 24.31 8.35 23.67 8.12 23L15.89 23C15.76 23.36 15.64 23.72 15.54 24.06L8.74 24.91ZM12 30C10.99 30 10.52 29.88 10 28.75L14.24 28.22C13.63 29.87 13.18 30 12 30ZM16.67 21L7.34 21C6.84 19.92 6.24 18.84 5.65 17.78C4.35 15.45 3 13.03 3 11C3 6.04 7.04 2 12 2C16.96 2 21 6.04 21 11C21 13.02 19.65 15.45 18.34 17.8C17.76 18.85 17.17 19.93 16.67 21ZM12 5C8.69 5 6 7.69 6 11C6 11.28 6.22 11.5 6.5 11.5C6.78 11.5 7 11.28 7 11C7 8.24 9.24 6 12 6C12.28 6 12.5 5.78 12.5 5.5C12.5 5.22 12.28 5 12 5Z" />
</svg>