<svg xmlns="http://www.w3.org/2000/svg" viewBox="0 0 32 28" width="32" height="28">
	<style>
		tspan { white-space:pre }
		.shp0 { fill: #666d89 } 
	</style>
	<path id="heart" class="shp0" d="M29.19 2.79C25.56 -0.8 19.76 -0.87 16 2.5C12.24 -0.87 6.44 -0.8 2.81 2.79C-0.93 6.49 -0.93 12.49 2.81 16.19C3.88 17.25 13.86 27.12 13.86 27.12C15.04 28.29 16.96 28.29 18.14 27.12C18.14 27.12 29.07 16.31 29.19 16.19C32.93 12.49 32.93 6.49 29.19 2.79ZM27.77 14.78L16.71 25.71C16.32 26.1 15.68 26.1 15.29 25.71L4.24 14.78C1.28 11.86 1.28 7.12 4.24 4.2C7.08 1.39 11.65 1.29 14.64 3.98L16 5.2L17.36 3.98C20.35 1.29 24.92 1.39 27.77 4.2C30.72 7.12 30.72 11.86 27.77 14.78ZM9.25 5.03C9.25 5.03 9.25 5.03 9.25 5.03C6.9 5.03 5 6.93 5 9.27L5 9.27C5 9.55 5.23 9.77 5.5 9.77C5.78 9.77 6 9.55 6 9.27L6 9.27C6 7.48 7.46 6.03 9.25 6.03L9.25 6.03C9.53 6.03 9.75 5.8 9.75 5.53C9.75 5.25 9.53 5.03 9.25 5.03Z" />
</svg>