<svg xmlns="http://www.w3.org/2000/svg" viewBox="0 0 32 33" width="32" height="33">
	<style>
		tspan { white-space:pre }
		.shp0 { fill: #666d89 } 
	</style>
	<path id="pen" class="shp0" d="M29.4 2.58C27.75 0.94 25.59 0 23.45 0C21.65 0 19.99 0.67 18.78 1.88L13.91 6.78C13.9 6.79 13.88 6.8 13.87 6.82C13.86 6.83 13.85 6.84 13.85 6.85L13.85 6.85L3.52 17.26C3.04 17.73 2.7 18.32 2.5 18.96L0.16 27.47C0.15 27.49 0 28.16 0 28.5C0 30.43 1.57 32 3.5 32C3.89 32 4.63 31.82 4.66 31.81L13.14 29.58C13.78 29.39 14.37 29.04 14.84 28.57L30.11 13.19C32.88 10.41 32.57 5.75 29.4 2.58ZM16.01 23.8C15.93 22.89 15.68 22.01 15.3 21.17L24.75 11.71C25.33 13.54 25.03 15.45 23.76 16.72C23.76 16.73 23.75 16.73 23.74 16.74L23.75 16.75L16.02 24.54C16.03 24.29 16.04 24.05 16.01 23.8ZM14.79 20.26C14.42 19.64 14 19.05 13.47 18.53C12.86 17.92 12.16 17.44 11.43 17.04L20.96 7.5C21.71 7.84 22.42 8.31 23.06 8.94C23.6 9.48 24.02 10.08 24.34 10.71L14.79 20.26ZM10.49 16.56C9.56 16.19 8.59 15.98 7.62 15.96L15.32 8.2C16.5 7.05 18.22 6.72 19.91 7.14L10.49 16.56ZM4.17 29.87C4.06 29.9 3.72 29.98 3.49 30C2.67 29.99 2 29.32 2 28.5C2.01 28.33 2.08 28.04 2.1 27.94L3.15 24.12C4.3 24.09 5.53 24.54 6.49 25.51C7.48 26.49 7.94 27.74 7.89 28.9L4.17 29.87ZM8.87 28.64C8.85 27.3 8.3 25.9 7.2 24.8C6.16 23.76 4.8 23.15 3.44 23.1L4.43 19.49C4.5 19.25 4.65 19.02 4.82 18.81C6.83 17.37 9.91 17.8 12.06 19.94C14.32 22.21 14.67 25.53 12.93 27.51C12.81 27.57 12.7 27.63 12.57 27.67L8.87 28.64ZM28.69 11.77L27.01 13.47C27.01 13.24 27.04 13.03 27.01 12.8C26.84 10.86 25.94 8.99 24.47 7.53C22.84 5.9 20.68 4.96 18.54 4.96L20.2 3.29C21.03 2.46 22.18 2 23.45 2C25.06 2 26.71 2.73 27.98 4C29.18 5.19 29.89 6.67 29.99 8.16C30.08 9.56 29.62 10.84 28.69 11.77Z" />
</svg>