<svg xmlns="http://www.w3.org/2000/svg" viewBox="0 0 24 34" width="24" height="34">
	<style>
		tspan { white-space:pre }
		.shp0 { fill: #666d89 } 
	</style>
	<path id="phone" class="shp0" d="M20 1L4 1C2.34 1 1 2.34 1 4L1 30C1 31.66 2.34 33 4 33L20 33C21.66 33 23 31.66 23 30L23 4C23 2.34 21.66 1 20 1ZM21 30C21 30.55 20.55 31 20 31L4 31C3.45 31 3 30.55 3 30L3 28L21 28L21 30ZM21 27L3 27L3 7L21 7L21 27ZM21 6L3 6L3 4C3 3.45 3.45 3 4 3L20 3C20.55 3 21 3.45 21 4L21 6ZM14 4.5C14 4.78 13.78 5 13.5 5L10.5 5C10.22 5 10 4.78 10 4.5L10 4.5C10 4.22 10.22 4 10.5 4L13.5 4C13.78 4 14 4.22 14 4.5L14 4.5ZM13 29.5C13 29.77 12.78 30 12.5 30L11.5 30C11.22 30 11 29.77 11 29.5L11 29.5C11 29.22 11.22 29 11.5 29L12.5 29C12.78 29 13 29.22 13 29.5L13 29.5Z" />
</svg>