<svg xmlns="http://www.w3.org/2000/svg" viewBox="0 0 32 32" width="32" height="32">
	<style>
		tspan { white-space:pre }
		.shp0 { fill: #666d89 } 
	</style>
	<path id="star" class="shp0" d="M31.88 11.56C31.6 10.76 30.89 10.17 30.04 10.05L21.71 8.81L18.09 1.29C17.71 0.51 16.9 0 16 0C15.1 0 14.29 0.51 13.91 1.29L10.29 8.81L1.96 10.05C1.11 10.17 0.4 10.76 0.12 11.56C-0.16 12.36 0.05 13.24 0.66 13.84L6.76 19.93L5.34 28.39C5.2 29.24 5.57 30.09 6.29 30.59C6.69 30.86 7.16 31 7.62 31C8.01 31 8.39 30.91 8.74 30.72L16 26.81L23.26 30.72C23.61 30.91 23.99 31 24.38 31C24.84 31 25.31 30.86 25.71 30.59C26.43 30.09 26.8 29.24 26.66 28.39L25.24 19.93L31.34 13.84C31.95 13.24 32.16 12.36 31.88 11.56ZM23.59 18.36C23.08 18.87 22.84 19.59 22.96 20.3L24.38 28.75L17.12 24.84C16.77 24.65 16.38 24.56 16 24.56C15.62 24.56 15.23 24.65 14.88 24.84L7.62 28.75L9.04 20.3C9.16 19.59 8.92 18.87 8.41 18.36L2.31 12.27L10.64 11.03C11.4 10.92 12.05 10.44 12.38 9.76L16 2.25L19.62 9.76C19.95 10.44 20.6 10.92 21.36 11.03L29.69 12.27L23.59 18.36Z" />
</svg>